<?xml version="1.0" encoding="utf-8"?>
<!-- Generator: Adobe Illustrator 23.0.1, SVG Export Plug-In . SVG Version: 6.00 Build 0)  -->
<svg version="1.1" id="Capa_1" xmlns="http://www.w3.org/2000/svg" xmlns:xlink="http://www.w3.org/1999/xlink" x="0px" y="0px"
	 viewBox="0 0 307.8 307.8" style="enable-background:new 0 0 307.8 307.8;" xml:space="preserve">
<g>
	<path d="M198.9,247.8c16.9-2.8,29.2-17.3,29.2-34.5V94.5c0-17.2-12.3-31.7-29.2-34.5l-1.7-0.3l-9.3-53.1c-0.4-2.4-2.5-4.1-4.9-4.1
		h-76.8c-2.4,0-4.5,1.7-4.9,4.1l-9.3,53.2l-1.7,0.3c-16.5,3.1-28.5,17.6-28.5,34.4v118.7c0,16.8,12,31.3,28.5,34.4l1.7,0.3l9.3,53.2
		c0.4,2.4,2.5,4.1,4.9,4.1h76.8c2.4,0,4.5-1.7,4.9-4.1l9.3-53.1L198.9,247.8z M110.3,12.5h68.4l8.2,47h-84.9L110.3,12.5z M74.5,83.1
		c4.3-8.3,12.8-13.5,22.2-13.5h96.4c9.4,0,17.9,5.2,22.2,13.5l1.9,3.7H72.6L74.5,83.1z M71.7,211.1V96.7h146.4v114.4H71.7z
		 M178.7,295.3h-68.4l-8.2-47H187L178.7,295.3z M96.7,238.3c-9.4,0-17.9-5.2-22.2-13.5l-1.9-3.7h144.6l-1.9,3.7
		c-4.3,8.3-12.8,13.5-22.2,13.5H96.7z"/>
	<path d="M177.2,128.6c-1.3,0-2.6,0.5-3.5,1.5l-31.8,31.8l-20.2-20.2c-0.9-0.9-2.2-1.5-3.5-1.5s-2.6,0.5-3.5,1.5
		c-0.9,0.9-1.5,2.2-1.5,3.5c0,1.3,0.5,2.6,1.5,3.5l23.7,23.7c0.9,0.9,2.2,1.5,3.5,1.5c1.3,0,2.6-0.5,3.5-1.5l35.3-35.3
		c0.9-0.9,1.5-2.2,1.5-3.5c0-1.3-0.5-2.6-1.5-3.5v0C179.8,129.1,178.5,128.6,177.2,128.6z"/>
</g>
</svg>
