<?xml version="1.0" encoding="utf-8"?>
<!-- Generator: Adobe Illustrator 23.0.1, SVG Export Plug-In . SVG Version: 6.00 Build 0)  -->
<svg version="1.1" id="Слой_1" xmlns="http://www.w3.org/2000/svg" xmlns:xlink="http://www.w3.org/1999/xlink" x="0px" y="0px"
	 viewBox="0 0 512 512" style="enable-background:new 0 0 512 512;" xml:space="preserve">
<g id="Layer_9">
	<path d="M142.3,474.7c120.1,62.2,268.5,15.7,331.5-104.2C528,267.4,502,139,411.8,65.2l-3.2-2.7h21.9v-13H392
		c-3.6,0-6.5,2.9-6.5,6.5v38.5h13V71.1l2.4,1.9c48.9,38.8,79.7,94.3,86.8,156.2c7.1,62-10.3,123-49.1,171.8
		c-45.5,57.4-113.7,88.3-183.1,88.3c-36.4,0-73.1-8.5-107.2-26.1L142.3,474.7z"/>
	<path d="M363.6,48.7l6.1-11.4C249.6-24.9,101.2,21.6,38.2,141.5C-16,244.6,10,373,100.2,446.8l3.2,2.7H81.5v13H120
		c3.6,0,6.5-2.9,6.5-6.5v-38.5h-13v23.4l-2.4-1.9C62.2,400.3,31.2,344.9,24,282.9c-7.2-62,10.1-123,48.8-171.9
		C142.3,23.2,264.4-2.9,363.6,48.7z"/>
	<path d="M256,73.5C155.4,73.5,73.5,155.4,73.5,256S155.4,438.5,256,438.5S438.5,356.6,438.5,256S356.6,73.5,256,73.5z M256,425.5
		c-93.5,0-169.5-76-169.5-169.5c0-93.5,76-169.5,169.5-169.5c93.5,0,169.5,76,169.5,169.5C425.5,349.5,349.5,425.5,256,425.5z"/>
	<path d="M256,105.5c-83,0-150.5,67.5-150.5,150.5c0,83,67.5,150.5,150.5,150.5c83,0,150.5-67.5,150.5-150.5
		C406.5,173,339,105.5,256,105.5z M393.5,264.1c-1.8,30.6-14,60.2-34.5,83.1l-1.1,1.2l-16.1-16.1l-9.2,9.2l16.1,16.1l-1.2,1.1
		c-23,20.7-52.6,33-83.5,34.9l-1.6,0.1v-24.1h-13v24.1l-1.6-0.1c-30.6-1.8-60.2-14-83.1-34.5l-1.2-1.1l16.1-16.1l-9.2-9.2
		l-16.1,16.1l-1.1-1.2c-20.5-23-32.8-52.7-34.5-83.5l-0.1-1.6h23.7v-13h-23.7l0.1-1.6c1.8-30.6,14-60.2,34.5-83.1l1.1-1.2l16.1,16.1
		l9.2-9.2l-16.1-16.1l1.2-1.1c22.9-20.4,52.4-32.7,83.1-34.5l1.6-0.1v23.7h13v-23.7l1.6,0.1c30.6,1.8,60.2,14,83.1,34.5l1.2,1.1
		l-16,16l9.4,9.1l16.1-16.1l1.1,1.2c20.6,22.9,32.9,52.5,34.7,83.2l0.1,1.6h-24.1v13h24.1L393.5,264.1z"/>
	<path d="M298.3,307.6l9.2-9.2l-45.1-45v-91.8h-13V256c0,1.7,0.7,3.4,1.9,4.6L298.3,307.6z"/>
</g>
</svg>
