<?xml version="1.0" encoding="utf-8"?>
<!-- Generator: Adobe Illustrator 23.0.1, SVG Export Plug-In . SVG Version: 6.00 Build 0)  -->
<svg version="1.1" id="Слой_1" xmlns="http://www.w3.org/2000/svg" xmlns:xlink="http://www.w3.org/1999/xlink" x="0px" y="0px"
	 viewBox="0 0 512 512" style="enable-background:new 0 0 512 512;" xml:space="preserve">
<g id="Page-1">
	<g>
		<path d="M503.2,238.5c-5.9-6.9-14.4-10.9-23.5-10.9c0,0,0,0,0,0h-56.4l0.3-1.7c1-6.7,1.6-13.6,1.6-20.4v-39.1
			c0-13.3-10.8-24.1-24.1-24.1H110.9c-13.3,0-24.1,10.8-24.1,24.1v39.1c0,13.7,2.1,27.3,6,40.4c0.5,1.8,1.7,3.3,3.4,4.2
			c1.7,0.9,3.6,1.1,5.4,0.6c1.8-0.5,3.3-1.7,4.2-3.4c0.9-1.7,1.1-3.6,0.6-5.4c-3.2-10.7-5-21.7-5.3-32.8l0-1.5h44.1c3.9,0,7-3.2,7-7
			s-3.2-7-7-7h-44.2v-27.1c0-5.5,4.5-10,10-10h290.1c5.5,0,10,4.5,10,10v27.1H196.3c-3.9,0-7,3.2-7,7s3.2,7,7,7H411l-0.1,1.6
			c-1,27.3-10.2,53.2-26.8,75c-14.8,19.6-34.7,55.1-45.8,113l-0.2,1.2h-23.8c-3.9,0-7,3.2-7,7s3.2,7,7,7h112.7
			c5.3,0,9.6,4.3,9.6,9.6v0.9c0,2.9-1.3,5.7-3.6,7.6l-31.8,25.4c-1.7,1.4-3.9,2.1-6.1,2.1H288.8c-3.9,0-7,3.2-7,7s3.2,7,7,7h106.5
			c5.4,0,10.6-1.9,14.8-5.2l31.9-25.5c5.6-4.5,8.9-11.3,8.8-18.5V422c0-13-10.6-23.7-23.7-23.7h-74.9l0.7-2
			c8.5-23.8,27.4-52.2,69.5-52.2c72.6,0,86.3-72.3,87.6-80.6C511.6,254.6,509,245.5,503.2,238.5z M496.2,261.2
			c-1.9,11.5-14.2,68.8-73.8,68.8c-19.2-0.5-38,5.7-53,17.6l-4.1,3.3l1.8-5c6.9-19.1,16.4-37,28.4-53.4l0,0
			c11.2-15,19.5-31.7,24.5-49.7l0.3-1.1h59.4c0,0,0,0,0,0c5,0,9.6,2.2,12.8,6C495.7,251.4,497,256.4,496.2,261.2z"/>
		<path d="M113.9,432.9c-0.8,17.4,5.8,34.3,18,46.6c11.9,11.9,28.4,18.5,45.2,18v0l1.4-0.1c28.9-1,55.8-13.1,75.8-34
			c21-19.8,33.2-46.6,34.3-75.4c0.5-17.3-6.1-34.3-18.1-46.7c-12.2-12.1-28.7-17.9-46.6-17.9c-25.3,0-53.4,11.7-75.7,34
			C127.2,377.4,115,404.1,113.9,432.9z M270.5,366.3l0.6,1.7c2.4,6.5,3.5,13.3,3.5,20.2c-1.2,25-11.9,48.2-30.1,65.3
			c-19.6,19.6-44.1,30.1-65.7,30.1c-14.3,0-27.2-4.5-36.7-14c-0.3-0.3-0.6-0.7-0.8-1c-0.1-0.2-0.3-0.4-0.5-0.6l-1.3-1.4l1.6-0.9
			c5.6-3.2,12-5.2,18.5-5.6c26.1-2,46.5-22.5,48.6-48.5c1.1-19.9,17-35.8,36.9-36.8c8.3-0.7,16.5-3.3,23.8-7.6L270.5,366.3z
			 M158.1,367.5c17.2-18.2,40.6-28.9,65.6-30.1c13.6-0.5,27,4.6,36.8,14c0.4,0.4,0.6,0.7,0.8,1c0.1,0.2,0.3,0.4,0.4,0.6l1.3,1.4
			l-1.6,0.9c-5.6,3.2-12,5.2-18.5,5.6c-26.1,2-46.5,22.5-48.6,48.5c-1.1,19.9-17,35.8-36.9,36.8c-8.3,0.7-16.5,3.3-23.8,7.6
			l-1.6,0.9l-0.6-1.7c-2.4-6.5-3.5-13.3-3.5-20.2C129.3,407.9,139.9,384.7,158.1,367.5z"/>
		<path d="M159.5,317.7c-16.2-29.6-42.7-47.3-70.8-47.4c-5,0-10,0.6-14.9,1.7C31.8,281.4,1.4,328.5,1.5,384
			c-0.1,62.6,39,113.6,87.2,113.7c5,0,10.1-0.6,15-1.7c3.2-0.8,5.5-3.7,5.4-7c-0.3-14-5.5-27.6-14.7-38.1
			c-7.9-8.5-12.2-19.7-12-31.3c-0.1-11.6,4.2-22.8,12-31.4c19.7-22.9,19.7-56.3,0-79.3c-5.6-6.4-9.5-14.1-11.3-22.5l-0.4-1.7
			l1.7-0.1c1.4-0.1,2.9-0.2,4.3-0.2c23.3,0.1,44.6,14.7,58.5,40l0,0c1.2,2.3,3.5,3.7,6,3.8c2.5,0.1,4.9-1.2,6.2-3.4
			C160.8,322.6,160.8,319.9,159.5,317.7z M83.1,317.1c7.9,8.5,12.1,19.6,11.9,31.3c0.1,11.7-4.2,22.9-12.1,31.5
			c-19.7,22.9-19.7,56.3,0,79.3c5.6,6.4,9.5,14.2,11.3,22.5l0.4,1.7l-1.7,0.1c-1.4,0.1-2.7,0.2-4.2,0.2
			c-40.4-0.1-73.2-44.8-73.2-99.7c-0.1-43.3,21.2-82.4,51.8-95.2l1.7-0.7l0.4,1.8C71.6,299.9,76.4,309.3,83.1,317.1z"/>
		<path d="M196.3,122.2c3.9,0,7-3.2,7-7c0-4.7,2.2-6.7,6.2-10.5l0.1-0.1c6.5-4.9,10.5-12.6,10.7-20.7c-0.1-8.1-4.1-15.9-10.7-20.7
			l-0.1-0.1c-4-3.7-6.2-5.8-6.2-10.5c0-4.7,2.2-6.7,6.2-10.4l0.1-0.1c6.5-4.8,10.5-12.6,10.7-20.7c0-3.9-3.2-7-7-7c-3.9,0-7,3.2-7,7
			c0,4.6-2.2,6.7-6.2,10.4l-0.1,0.1c-6.6,4.8-10.6,12.6-10.7,20.7c0.1,8.1,4.1,15.9,10.7,20.7l0.1,0.1c4.2,3.9,6.3,5.9,6.3,10.5
			c0,4.7-2.2,6.7-6.2,10.5l-0.1,0.1c-6.5,4.8-10.5,12.6-10.7,20.7C189.2,119.1,192.4,122.2,196.3,122.2z"/>
		<path d="M247.5,122.2c3.9,0,7-3.2,7-7c0-4.7,2.2-6.7,6.2-10.5l0.1-0.1c6.5-4.9,10.5-12.6,10.7-20.7c-0.1-8.1-4.1-15.9-10.7-20.7
			l-0.1-0.1c-4-3.7-6.2-5.8-6.2-10.5c0-4.7,2.2-6.7,6.2-10.4l0.1-0.1c6.5-4.8,10.5-12.6,10.7-20.7c0-3.9-3.2-7-7-7s-7,3.2-7,7
			c0,4.6-2.2,6.7-6.2,10.4l-0.1,0.1c-6.6,4.8-10.6,12.6-10.7,20.7c0.1,8.1,4.1,15.9,10.7,20.7l0.1,0.1c4.2,3.9,6.3,5.9,6.3,10.5
			c0,4.7-2.2,6.7-6.2,10.5l-0.1,0.1c-6.5,4.8-10.5,12.6-10.7,20.7C240.4,119.1,243.6,122.2,247.5,122.2z"/>
		<path d="M298.7,122.2c3.9,0,7-3.2,7-7c0-4.7,2.2-6.7,6.2-10.5l0.1-0.1c6.5-4.9,10.5-12.6,10.7-20.7c-0.1-8.1-4.1-15.9-10.7-20.7
			l-0.1-0.1c-4-3.7-6.2-5.8-6.2-10.5c0-4.7,2.2-6.7,6.2-10.4l0.1-0.1c6.5-4.8,10.5-12.6,10.7-20.7c0-3.9-3.2-7-7-7s-7,3.2-7,7
			c0,4.6-2.2,6.7-6.2,10.4l-0.1,0.1c-6.6,4.8-10.6,12.6-10.7,20.7c0.1,8.1,4.1,15.9,10.7,20.7l0.1,0.1c4.2,3.9,6.3,5.9,6.3,10.5
			c0,4.7-2.2,6.7-6.2,10.5l-0.1,0.1c-6.5,4.8-10.5,12.6-10.7,20.7C291.6,119.1,294.8,122.2,298.7,122.2z"/>
	</g>
</g>
</svg>
