<?xml version="1.0" encoding="utf-8"?>
<!-- Generator: Adobe Illustrator 23.0.1, SVG Export Plug-In . SVG Version: 6.00 Build 0)  -->
<svg version="1.1" id="OutlineExpand" xmlns="http://www.w3.org/2000/svg" xmlns:xlink="http://www.w3.org/1999/xlink" x="0px"
	 y="0px" viewBox="0 0 512 512" style="enable-background:new 0 0 512 512;" xml:space="preserve">
<path d="M332.4,348.6c0.3-4.3,0.6-8.4,0.6-12.6c0-4.3-0.3-8.6-0.6-12.6c-0.2-2.2-1.8-4-3.9-4.5l-29.8-6.4l-0.4-1.9
	c-1-4.7-2.2-9.3-3.7-13.7L294,295l22.5-20.4c1.6-1.5,2.1-3.8,1.2-5.9c-3.8-7.9-8-15.3-12.5-21.9c-1.2-1.8-3.6-2.6-5.6-1.9l-29,9.3
	l-1.3-1.5c-3.2-3.5-6.5-6.9-10.1-10.1l-1.5-1.3l9.3-29c0.7-2.1-0.1-4.4-1.9-5.6c-6.5-4.5-13.9-8.7-21.9-12.5c-2-1-4.4-0.5-5.9,1.2
	L217,218l-1.9-0.6c-4.5-1.5-9.1-2.7-13.7-3.7l-1.9-0.4l-6.4-29.8c-0.5-2.1-2.3-3.8-4.5-3.9c-8.3-0.7-16.8-0.7-25.3,0
	c-2.2,0.2-4,1.8-4.5,3.9l-6.4,29.8l-1.9,0.4c-4.7,1-9.3,2.2-13.7,3.7L135,218l-20.4-22.6c-1.5-1.6-3.8-2.1-5.9-1.2
	c-8,3.8-15.3,8-21.9,12.5c-1.8,1.3-2.6,3.5-1.9,5.6l9.3,29l-1.5,1.3c-3.5,3.2-6.9,6.5-10.1,10.1l-1.3,1.5l-28.9-9.3
	c-2.1-0.7-4.4,0.1-5.6,1.9c-4.5,6.5-8.7,13.9-12.5,21.9c-1,2-0.5,4.4,1.2,5.9L58,295l-0.6,1.9c-1.5,4.5-2.7,9.1-3.7,13.7l-0.4,1.9
	l-29.8,6.4c-2.1,0.5-3.8,2.3-3.9,4.5c-0.3,4-0.6,8.4-0.6,12.6c0,4.3,0.3,8.6,0.6,12.6c0.2,2.2,1.8,4,3.9,4.5l29.8,6.4l0.4,1.9
	c1,4.7,2.2,9.3,3.7,13.7L58,377l-22.6,20.4c-1.6,1.5-2.1,3.9-1.2,5.9c3.8,8,8,15.3,12.5,21.9c1.3,1.8,3.5,2.6,5.6,1.9l29-9.3
	l1.3,1.5c3.2,3.5,6.5,6.9,10.1,10.1l1.5,1.3l-9.3,29c-0.7,2.1,0.1,4.4,1.9,5.6c6.5,4.5,13.9,8.7,21.9,12.5c2,1,4.4,0.5,5.9-1.2
	L135,454l1.9,0.6c4.5,1.5,9.1,2.7,13.7,3.7l1.9,0.4l6.4,29.8c0.5,2.1,2.3,3.8,4.5,3.9c4,0.3,8.3,0.6,12.6,0.6s8.6-0.3,12.6-0.6
	c2.2-0.2,4-1.8,4.5-3.9l6.4-29.8l1.9-0.4c4.7-1,9.3-2.2,13.7-3.7l1.9-0.6l20.4,22.5c1.5,1.6,3.9,2.1,5.8,1.2
	c7.9-3.8,15.3-8,21.9-12.5c1.8-1.3,2.6-3.5,1.9-5.6l-9.3-29l1.5-1.3c3.5-3.1,6.9-6.5,10.1-10.1l1.3-1.5l29,9.3
	c2.1,0.7,4.4-0.1,5.6-1.9c4.5-6.5,8.7-13.9,12.5-21.9c1-2,0.5-4.4-1.2-5.9L294,377l0.6-1.9c1.5-4.5,2.7-9.1,3.7-13.7l0.4-1.9
	l29.8-6.4C330.6,352.7,332.2,350.8,332.4,348.6z M322.8,341.8l-0.1,2.3l-29.5,6.4c-2,0.4-3.5,2-3.9,4.1c-1.2,7.6-3.2,15-5.9,22.1
	c-0.7,1.9-0.2,4.1,1.3,5.5l22.3,20.2l-1.1,2.1c-1.8,3.5-3.7,6.9-5.7,10l-1.2,2l-28.6-9.2c-2-0.6-4.1,0-5.4,1.6
	c-4.8,5.9-10.3,11.4-16.2,16.2c-1.6,1.3-2.2,3.5-1.6,5.4l9.2,28.6l-2,1.2c-3.2,2-6.6,3.9-10,5.7l-2.1,1.1l-20.2-22.3
	c-1.4-1.5-3.5-2-5.5-1.3c-7.1,2.7-14.5,4.7-22.1,5.9c-2,0.3-3.6,1.9-4.1,3.9l-6.4,29.5l-2.3,0.1c-2,0.1-4,0.2-5.9,0.2
	c-2,0-3.9-0.1-5.8-0.2l-2.3-0.1l-6.4-29.5c-0.4-2-2-3.5-4.1-3.9c-7.6-1.2-15-3.2-22.1-5.9c-1.9-0.7-4.1-0.2-5.5,1.3L109.7,467
	l-2.1-1.1c-3.5-1.8-6.9-3.7-10-5.7l-2-1.2l9.2-28.6c0.6-2,0-4.1-1.6-5.4c-5.9-4.8-11.4-10.3-16.2-16.2c-1.3-1.6-3.5-2.2-5.4-1.6
	L53,416.4l-1.2-2c-2-3.2-3.9-6.6-5.7-10l-1.1-2.1l22.3-20.2c1.5-1.4,2.1-3.5,1.3-5.5c-2.7-7.1-4.7-14.5-5.9-22.1
	c-0.3-2-1.9-3.6-3.9-4.1l-29.5-6.3l-0.1-2.3c-0.1-2.3-0.2-4.1-0.2-5.8c0-1.8,0.1-3.7,0.2-5.8l0.1-2.3l29.5-6.4c2-0.4,3.5-2,3.9-4.1
	c1.2-7.6,3.2-15,5.9-22.1c0.7-1.9,0.2-4.1-1.3-5.5l-22.3-20.2l1.1-2.1c1.8-3.5,3.7-6.9,5.7-10l1.2-2l28.6,9.2c1.9,0.6,4.1,0,5.4-1.6
	c4.8-5.9,10.3-11.4,16.2-16.2c1.6-1.3,2.2-3.4,1.6-5.4L95.6,213l2-1.2c3.2-2,6.6-3.9,10-5.7l2.1-1.1l20.2,22.3
	c1.4,1.5,3.6,2,5.5,1.3c7.1-2.7,14.5-4.7,22.1-5.9c2-0.3,3.6-1.9,4.1-3.9l6.4-29.5l2.3-0.1c4-0.2,7.9-0.2,11.7,0l2.3,0.1l6.4,29.5
	c0.4,2,2,3.5,4.1,3.9c7.6,1.2,15,3.2,22.1,5.9c1.9,0.7,4.1,0.2,5.5-1.3l20.2-22.3l2.1,1.1c3.5,1.8,6.9,3.7,10,5.7l2,1.2l-9.2,28.6
	c-0.6,2,0,4.1,1.6,5.4c5.9,4.8,11.4,10.3,16.2,16.2c1.3,1.6,3.4,2.2,5.4,1.6l28.6-9.2l1.2,2c2,3.2,3.9,6.6,5.7,10l1.1,2.1
	l-22.3,20.2c-1.5,1.4-2.1,3.5-1.3,5.5c2.7,7.1,4.7,14.5,5.9,22.1c0.3,2,1.9,3.6,3.9,4.1l29.5,6.4l0.1,2.3c0.1,2.2,0.2,4.1,0.2,5.8
	C323,337.8,322.9,339.8,322.8,341.8z"/>
<path d="M436.3,122.8c0.5-3.9,0.7-7.4,0.7-10.8c0-3.4-0.2-6.9-0.7-10.8c-0.2-2-1.6-3.6-3.5-4.2l-23.6-7.4l-0.5-1.4
	c-0.6-1.7-1.3-3.5-2.1-5.1l-0.6-1.3l11.4-21.9c0.9-1.7,0.7-3.9-0.5-5.4c-4.5-5.7-9.6-10.8-15.3-15.3c-1.5-1.2-3.7-1.4-5.4-0.5
	L374.3,50l-1.3-0.6c-1.7-0.8-3.4-1.5-5.1-2.1l-1.4-0.5L359,23.2c-0.6-1.9-2.2-3.2-4.2-3.5c-7.9-0.9-13.8-0.9-21.7,0
	c-2,0.2-3.6,1.6-4.2,3.5l-7.4,23.6l-1.4,0.5c-1.7,0.6-3.5,1.3-5.1,2.1l-1.3,0.6l-21.9-11.4c-1.7-0.9-3.9-0.7-5.4,0.5
	c-5.7,4.5-10.8,9.6-15.3,15.3c-1.2,1.5-1.4,3.7-0.5,5.4L282,81.7l-0.6,1.3c-0.8,1.7-1.5,3.4-2.1,5.1l-0.5,1.4L255.1,97
	c-1.9,0.6-3.2,2.2-3.5,4.2c-0.5,3.9-0.7,7.4-0.7,10.8s0.2,6.9,0.7,10.8c0.2,2,1.6,3.6,3.5,4.2l23.6,7.4l0.5,1.4
	c0.6,1.7,1.3,3.5,2.1,5.1l0.6,1.3l-11.4,21.9c-0.9,1.7-0.7,3.9,0.5,5.4c4.5,5.7,9.6,10.8,15.3,15.3c1.5,1.2,3.7,1.4,5.4,0.5
	l21.9-11.4l1.3,0.6c1.7,0.8,3.4,1.5,5.1,2.1l1.4,0.5l7.4,23.6c0.6,1.9,2.2,3.2,4.2,3.5c3.9,0.5,7.4,0.7,10.8,0.7
	c3.4,0,6.9-0.2,10.8-0.7c2-0.2,3.6-1.6,4.2-3.5l7.4-23.6l1.4-0.5c1.7-0.6,3.5-1.3,5.1-2.1l1.3-0.6l21.9,11.4
	c1.7,0.9,3.9,0.7,5.4-0.5c5.7-4.5,10.8-9.6,15.3-15.3c1.2-1.5,1.4-3.7,0.5-5.4L406,142.3l0.6-1.3c0.8-1.7,1.5-3.4,2.1-5.1l0.5-1.4
	l23.6-7.4C434.7,126.4,436.1,124.8,436.3,122.8z M426.9,116.4l-0.1,2.1l-22.9,7.2c-1.6,0.5-2.8,1.8-3.3,3.3
	c-1.1,3.8-2.7,7.5-4.5,10.9c-0.8,1.5-0.8,3.2,0,4.7l11.1,21.3l-1.4,1.5c-2,2.2-4.1,4.3-6.2,6.2l-1.5,1.4l-21.3-11.1
	c-1.5-0.8-3.2-0.8-4.7,0c-3.4,1.8-7.1,3.4-10.9,4.5c-1.6,0.5-2.8,1.7-3.3,3.3l-7.2,23l-2.1,0.1c-1.5,0.1-3,0.1-4.4,0.1
	s-2.9,0-4.4-0.1l-2.1-0.1l-7.2-23c-0.5-1.6-1.7-2.8-3.3-3.3c-3.8-1.1-7.5-2.7-10.9-4.5c-1.5-0.8-3.2-0.8-4.7,0l-21.3,11.1l-1.5-1.4
	c-2.2-2-4.3-4.1-6.2-6.2l-1.4-1.5l11.1-21.3c0.8-1.5,0.8-3.2,0-4.7c-1.8-3.5-3.4-7.1-4.5-10.9c-0.5-1.6-1.7-2.8-3.3-3.3l-22.9-7.2
	l-0.1-2.1c-0.1-1.5-0.1-2.9-0.1-4.4s0-2.9,0.1-4.4l0.1-2.1l23-7.2c1.6-0.5,2.8-1.7,3.3-3.3c1.1-3.8,2.7-7.5,4.5-10.9
	c0.8-1.5,0.8-3.2,0-4.7l-11.1-21.3l1.4-1.5c2-2.2,4.1-4.3,6.2-6.2l1.5-1.4l21.3,11.1c1.5,0.8,3.2,0.8,4.7,0
	c3.4-1.8,7.1-3.4,10.9-4.5c1.6-0.5,2.8-1.7,3.3-3.3l7.2-23l2.1-0.1c3-0.2,5.7-0.2,8.8,0l2.1,0.1l7.2,23c0.5,1.6,1.7,2.8,3.3,3.3
	c3.8,1.1,7.5,2.7,10.9,4.5c1.5,0.8,3.2,0.8,4.7,0l21.3-11.1l1.5,1.4c2.2,2,4.3,4.1,6.2,6.2l1.4,1.5l-11.1,21.3
	c-0.8,1.5-0.8,3.2,0,4.7c1.8,3.5,3.4,7.1,4.5,10.9c0.5,1.6,1.7,2.8,3.3,3.3l22.9,7.2l0.1,2.1c0.1,1.5,0.1,2.9,0.1,4.4
	S427,114.9,426.9,116.4z"/>
<path d="M492.4,305.3c0.4-3.4,0.6-6.4,0.6-9.3c0-2.9-0.2-5.9-0.6-9.3c-0.2-1.9-1.5-3.5-3.3-4.1l-15.1-5.4l-0.5-1.4
	c-0.8-2.2-1.6-4.3-2.6-6.2l-0.6-1.3l6.9-14.5c0.8-1.7,0.6-3.7-0.6-5.2c-3.9-4.9-8.3-9.4-13.2-13.3c-1.5-1.2-3.5-1.4-5.2-0.6
	l-14.5,6.9l-1.3-0.6c-2-1-4.1-1.8-6.2-2.6l-1.4-0.5l-5.4-15.1c-0.6-1.8-2.2-3.1-4.1-3.3c-6.9-0.8-11.8-0.8-18.7,0
	c-1.9,0.2-3.5,1.5-4.1,3.3l-5.4,15.1l-1.4,0.5c-2.2,0.8-4.3,1.6-6.2,2.6l-1.3,0.6l-14.5-6.9c-1.7-0.8-3.7-0.6-5.2,0.6
	c-4.9,3.9-9.4,8.3-13.2,13.2c-1.2,1.5-1.4,3.5-0.6,5.2l6.9,14.5l-0.6,1.3c-1,2-1.8,4.1-2.6,6.2l-0.5,1.4l-15.1,5.4
	c-1.8,0.6-3.1,2.2-3.3,4.1c-0.4,3.4-0.6,6.4-0.6,9.3c0,2.9,0.2,5.9,0.6,9.3c0.2,1.9,1.5,3.5,3.3,4.1l15.1,5.4l0.5,1.4
	c0.8,2.2,1.6,4.3,2.6,6.2l0.6,1.3l-6.9,14.5c-0.8,1.7-0.6,3.7,0.6,5.2c3.9,4.9,8.3,9.4,13.2,13.3c1.5,1.2,3.5,1.4,5.2,0.6l14.5-6.9
	l1.3,0.6c2,1,4.1,1.8,6.2,2.6l1.4,0.5l5.4,15.1c0.6,1.8,2.2,3.1,4.1,3.3c3.4,0.4,6.4,0.6,9.3,0.6c2.9,0,5.9-0.2,9.3-0.6
	c1.9-0.2,3.5-1.5,4.1-3.3l5.4-15.1l1.4-0.5c2.2-0.8,4.3-1.6,6.2-2.6l1.3-0.6l14.5,6.9c1.7,0.8,3.7,0.6,5.2-0.6
	c4.9-3.9,9.4-8.3,13.3-13.2c1.2-1.5,1.4-3.5,0.6-5.2l-6.9-14.5l0.6-1.3c1-2,1.8-4.1,2.6-6.2l0.5-1.4l15.1-5.4
	C490.8,308.8,492.1,307.2,492.4,305.3z M482.9,299.1l-0.1,2l-14.6,5.2c-1.5,0.5-2.7,1.8-3.1,3.4c-1.1,4-2.7,7.9-4.7,11.5
	c-0.8,1.4-0.9,3.1-0.2,4.6l6.6,13.9l-1.4,1.5c-1.4,1.5-2.9,3-4.4,4.4l-1.5,1.4l-13.9-6.6c-1.5-0.7-3.2-0.6-4.6,0.2
	c-3.5,2-7.4,3.6-11.4,4.7c-1.6,0.4-2.8,1.6-3.4,3.2l-5.2,14.6l-2,0.1c-1,0.1-2.1,0.1-3.1,0.1c-1,0-2.1,0-3.1-0.1l-2-0.1l-5.2-14.6
	c-0.5-1.5-1.8-2.7-3.4-3.1c-4-1.1-7.9-2.7-11.5-4.7c-1.4-0.8-3.1-0.9-4.6-0.2l-13.9,6.6l-1.5-1.4c-1.5-1.4-3-2.9-4.4-4.4l-1.4-1.5
	l6.6-13.9c0.7-1.5,0.6-3.2-0.2-4.6c-2-3.5-3.6-7.4-4.7-11.4c-0.4-1.6-1.6-2.8-3.2-3.4l-14.5-5.2l-0.1-2c-0.1-1-0.1-2.1-0.1-3.1
	c0-0.9,0-1.9,0.1-3.1l0.1-2l14.6-5.2c1.5-0.5,2.7-1.8,3.1-3.4c1.1-4,2.7-7.9,4.7-11.5c0.8-1.4,0.9-3.1,0.2-4.6l-6.6-13.9l1.4-1.5
	c1.4-1.5,2.9-3,4.4-4.4l1.5-1.4l13.9,6.6c1.5,0.7,3.2,0.6,4.6-0.2c3.6-2,7.4-3.6,11.5-4.7c1.6-0.4,2.8-1.6,3.4-3.2l5.2-14.6l2-0.1
	c2-0.1,4.1-0.1,6.2,0l2,0.1l5.2,14.6c0.5,1.5,1.8,2.7,3.4,3.1c4,1.1,7.9,2.7,11.5,4.7c1.4,0.8,3.1,0.9,4.6,0.2l13.9-6.6l1.5,1.4
	c1.5,1.4,3,2.9,4.4,4.4l1.4,1.5l-6.6,13.9c-0.7,1.5-0.6,3.2,0.2,4.6c2,3.5,3.6,7.4,4.7,11.4c0.4,1.6,1.6,2.8,3.2,3.4l14.5,5.2l0.1,2
	c0.1,1.1,0.1,2.1,0.1,3.1C483,296.9,483,297.9,482.9,299.1z"/>
<path d="M176,251c-46.9,0-85,38.1-85,85s38.1,85,85,85s85-38.1,85-85S222.9,251,176,251z M176,411c-41.4,0-75-33.6-75-75
	s33.6-75,75-75s75,33.6,75,75S217.4,411,176,411z"/>
<path d="M189.7,110.6l-7.1,7.1L197,132l-7.9-0.5c-4.2-0.3-8.6-0.5-13-0.5c-60,0-116.5,26-155.6,71.5l7.7,6.4
	C65.2,165.7,119,141,176,141c4.2,0,8.4,0.2,12.4,0.5l6.6,0.4l-12.4,12.4l7.1,7.1l21.9-21.9c0.9-0.9,1.5-2.2,1.5-3.5
	c0-1.3-0.5-2.6-1.5-3.5L189.7,110.6z"/>
<path d="M344,75c-20.4,0-37,16.6-37,37s16.6,37,37,37s37-16.6,37-37S364.4,75,344,75z M344,139c-14.9,0-27-12.1-27-27s12.1-27,27-27
	s27,12.1,27,27S358.9,139,344,139z"/>
<path d="M416,267c-16,0-29,13-29,29s13,29,29,29s29-13,29-29S432,267,416,267z M416,315c-10.5,0-19-8.5-19-19s8.5-19,19-19
	s19,8.5,19,19S426.5,315,416,315z"/>
<path d="M486,42.5L449,35.1c-1.3-0.3-2.6,0-3.8,0.7c-1.1,0.7-1.9,1.9-2.1,3.2l-7.4,37.1l9.8,2l5.5-27.4l3.9,8.1
	C462.8,75.3,467,93.7,467,112c0,27.3-8.7,53-25.1,74.5l7.8,6.3c17.6-23.1,27.3-51.6,27.3-80.8c0-20.4-4.8-40.7-13.7-58.9l-2.7-5.5
	l23.5,4.7L486,42.5z"/>
</svg>
