<?xml version="1.0" encoding="utf-8"?>
<!-- Generator: Adobe Illustrator 23.0.1, SVG Export Plug-In . SVG Version: 6.00 Build 0)  -->
<svg version="1.1" id="Capa_1" xmlns="http://www.w3.org/2000/svg" xmlns:xlink="http://www.w3.org/1999/xlink" x="0px" y="0px"
	 viewBox="0 0 298.5 298.5" style="enable-background:new 0 0 298.5 298.5;" xml:space="preserve">
<path d="M274.5,247.4c11.8,0,21.5-9.6,21.5-21.5V35.7c0-5.7-2.2-11.1-6.3-15.2c-4.1-4.1-9.5-6.3-15.2-6.3H24
	c-11.8,0-21.5,9.6-21.5,21.5v190.2c0,11.8,9.6,21.5,21.5,21.5H119v26.9H93c-2.8,0-5,2.2-5,5s2.2,5,5,5h112.4c2.8,0,5-2.2,5-5
	s-2.2-5-5-5h-26v-26.9H274.5z M12.5,35.7c0-6.3,5.2-11.5,11.5-11.5h250.5c6.3,0,11.5,5.2,11.5,11.5v18.7H12.5V35.7z M12.5,64.4H286
	v132.9H12.5V64.4z M169.4,274.3H129v-26.9h40.4V274.3z M24,237.4c-6.3,0-11.5-5.2-11.5-11.5v-18.7H286v18.7
	c0,6.3-5.2,11.5-11.5,11.5H24z"/>
</svg>
