<?xml version="1.0" encoding="utf-8"?>
<!-- Generator: Adobe Illustrator 23.0.1, SVG Export Plug-In . SVG Version: 6.00 Build 0)  -->
<svg version="1.1" id="Capa_1" xmlns="http://www.w3.org/2000/svg" xmlns:xlink="http://www.w3.org/1999/xlink" x="0px" y="0px"
	 viewBox="0 0 307.8 307.8" style="enable-background:new 0 0 307.8 307.8;" xml:space="preserve">
<g>
	<path d="M271,17.2c0-8.1-6.6-14.7-14.7-14.7H51.5c-8.1,0-14.7,6.6-14.7,14.7v273.5c0,8.1,6.6,14.7,14.7,14.7h204.9
		c8.1,0,14.7-6.6,14.7-14.7V17.2z M261,290.7c0,2.6-2.1,4.7-4.7,4.7H51.5c-2.6,0-4.7-2.1-4.7-4.7v-40.8H261V290.7z M261,239.9H46.8
		V56L261,56V239.9z M261,46L46.8,46V17.2c0-2.6,2.1-4.7,4.7-4.7h204.9c2.6,0,4.7,2.1,4.7,4.7V46z"/>
	<path d="M139.9,31.7h27.9c1.4,0,2.5-1.1,2.5-2.5s-1.1-2.5-2.5-2.5h-27.9c-1.4,0-2.5,1.1-2.5,2.5S138.6,31.7,139.9,31.7z"/>
	<path d="M153.9,257.9c-8.1,0-14.7,6.6-14.7,14.7c0,8.1,6.6,14.7,14.7,14.7c8.1,0,14.7-6.6,14.7-14.7
		C168.6,264.5,162,257.9,153.9,257.9z M153.9,282.3c-5.3,0-9.7-4.3-9.7-9.7c0-5.3,4.3-9.7,9.7-9.7c5.3,0,9.7,4.3,9.7,9.7
		C163.6,277.9,159.2,282.3,153.9,282.3z"/>
</g>
</svg>
