<?xml version="1.0" encoding="utf-8"?>
<!-- Generator: Adobe Illustrator 23.0.1, SVG Export Plug-In . SVG Version: 6.00 Build 0)  -->
<svg version="1.1" id="Capa_1" xmlns="http://www.w3.org/2000/svg" xmlns:xlink="http://www.w3.org/1999/xlink" x="0px" y="0px"
	 viewBox="0 0 275.1 275.1" style="enable-background:new 0 0 275.1 275.1;" xml:space="preserve">
<g>
	<path d="M203.7,2.5H71.4C62.9,2.5,56,9.4,56,17.9v239.2c0,8.5,6.9,15.4,15.4,15.4h132.3c8.5,0,15.4-6.9,15.4-15.4V17.9
		c0-4.1-1.6-8-4.5-10.9C211.7,4.1,207.8,2.5,203.7,2.5z M66,17.9c0-3,2.4-5.4,5.4-5.4h132.3c3,0,5.4,2.4,5.4,5.4v31.5L66,49.4V17.9z
		 M209.1,257.1c0,1.4-0.6,2.8-1.6,3.8c-1,1-2.4,1.6-3.8,1.6H71.4c-2.9,0-5.4-2.5-5.4-5.4v-49.3h143.2V257.1z M209.1,197.9H66V59.4
		l143.2,0V197.9z"/>
	<path d="M137.5,220c-8.4,0-15.2,6.8-15.2,15.3c0,8.4,6.8,15.2,15.2,15.2c8.4,0,15.2-6.8,15.2-15.2C152.8,226.8,145.9,220,137.5,220
		z M137.5,245.4c-5.6,0-10.2-4.6-10.2-10.2c0-5.7,4.6-10.3,10.2-10.3c5.6,0,10.2,4.6,10.2,10.3C147.8,240.9,143.2,245.4,137.5,245.4
		z"/>
	<path d="M152.6,33.5c1.4,0,2.5-1.1,2.5-2.5s-1.1-2.5-2.5-2.5h-30.2c-1.4,0-2.5,1.1-2.5,2.5s1.1,2.5,2.5,2.5H152.6z"/>
</g>
</svg>
