<?xml version="1.0" encoding="utf-8"?>
<!-- Generator: Adobe Illustrator 23.0.1, SVG Export Plug-In . SVG Version: 6.00 Build 0)  -->
<svg version="1.1" id="Capa_1" xmlns="http://www.w3.org/2000/svg" xmlns:xlink="http://www.w3.org/1999/xlink" x="0px" y="0px"
	 viewBox="0 0 393.7 393.7" style="enable-background:new 0 0 393.7 393.7;" xml:space="preserve">
<path d="M40.7,320.6H353c21.1,0,38.2-17.1,38.2-38.2c0-1.3-0.5-2.6-1.5-3.5c-0.9-0.9-2.2-1.5-3.5-1.5h-40.7V92c0-10.5-8.5-19-19-19
	H67.2c-10.5,0-19,8.5-19,19v185.5H7.5c-2.8,0-5,2.2-5,5C2.5,303.5,19.6,320.6,40.7,320.6z M58.2,92c0-4.9,4.1-9,9-9h259.3
	c4.9,0,9,4,9,9v14.7H58.2V92z M58.2,116.7h277.3v127H58.2V116.7z M58.2,253.8h277.3v23.7H58.2V253.8z M380.9,287.5l-1,3.2
	c-3.6,11.7-14.7,20-27,20H40.7c-12.3,0-23.4-8.2-27-20l-1-3.2H380.9z"/>
</svg>
