<?xml version="1.0" encoding="utf-8"?>
<!-- Generator: Adobe Illustrator 23.0.1, SVG Export Plug-In . SVG Version: 6.00 Build 0)  -->
<svg version="1.1" id="Слой_1" xmlns="http://www.w3.org/2000/svg" xmlns:xlink="http://www.w3.org/1999/xlink" x="0px" y="0px"
	 viewBox="0 0 512 512" style="enable-background:new 0 0 512 512;" xml:space="preserve">
<g>
	<path d="M460,492.8c3.3,0,6-2.7,6-6V355.9h20.7c0,0,0,0,0,0c3.3,0,6-2.7,6-6c0-0.4,0-0.8-0.1-1.3l0,0l-26.7-126.4
		c-0.6-2.8-3-4.8-5.9-4.8c0,0,0,0,0,0H52c0,0,0,0,0,0c-2.8,0-5.3,2-5.9,4.8L19.4,348.7c-0.3,1.6,0,3.2,0.8,4.5s2.2,2.3,3.8,2.6
		c0.4,0.1,0.8,0.1,1.3,0.1H46v130.9c0,1.6,0.6,3.1,1.8,4.2c1.1,1.1,2.6,1.8,4.2,1.8H460C460,492.8,460,492.8,460,492.8z
		 M455.2,229.5l24.2,114.4H287.6l-24.2-114.4H455.2z M32.6,343.9l24.2-114.4h191.8l-24.2,114.4H32.6z M250,480.8H58V355.9h171.3
		c0,0,0,0,0,0c2.8,0,5.3-2,5.9-4.8l14.9-70.3V480.8z M454,480.8H262V280.8l14.9,70.3c0.6,2.8,3,4.8,5.9,4.8c0,0,0,0,0,0H454V480.8z"
		/>
	<path d="M87.3,456.3h53.3c3.3,0,6-2.7,6-6s-2.7-6-6-6H87.3c-3.3,0-6,2.7-6,6S84,456.3,87.3,456.3z"/>
	<path d="M184.2,444.3h-15.8c-3.3,0-6,2.7-6,6s2.7,6,6,6h15.8c3.3,0,6-2.7,6-6S187.5,444.3,184.2,444.3z"/>
	<path d="M433,253.6h-53.3c-3.3,0-6,2.7-6,6s2.7,6,6,6H433c3.3,0,6-2.7,6-6S436.3,253.6,433,253.6z"/>
	<path d="M352,253.6h-15.8c-3.3,0-6,2.7-6,6s2.7,6,6,6H352c3.3,0,6-2.7,6-6S355.3,253.6,352,253.6z"/>
	<path d="M256,19.2c-47.6,0-86.3,38.7-86.3,86.3c0.1,47.5,38.8,86.2,86.3,86.3c47.6,0,86.3-38.7,86.3-86.3S303.6,19.2,256,19.2z
		 M256,179.8c-41,0-74.3-33.3-74.3-74.3c0-40.9,33.4-74.2,74.3-74.3h0c41,0,74.3,33.3,74.3,74.3C330.3,146.5,297,179.8,256,179.8z"
		/>
	<path d="M286.1,77.4l-42.4,42.4l-17.8-17.8c-1.1-1.1-2.6-1.8-4.2-1.8s-3.1,0.6-4.2,1.8s-1.8,2.6-1.8,4.2s0.6,3.1,1.8,4.2l22.1,22.1
		c2.3,2.3,6.1,2.3,8.5,0l46.6-46.6c2.3-2.3,2.3-6.1,0-8.5C292.2,75.1,288.4,75.1,286.1,77.4z"/>
</g>
</svg>
